<svg width="17" height="18" viewBox="0 0 17 18" fill="none" xmlns="http://www.w3.org/2000/svg">
<g clip-path="url(#clip0_154_878)">
<path d="M3.54175 12.6979H2.83341C2.45769 12.6979 2.09736 12.5487 1.83168 12.283C1.566 12.0173 1.41675 11.657 1.41675 11.2812V4.19792C1.41675 3.82219 1.566 3.46186 1.83168 3.19618C2.09736 2.93051 2.45769 2.78125 2.83341 2.78125H14.1667C14.5425 2.78125 14.9028 2.93051 15.1685 3.19618C15.4342 3.46186 15.5834 3.82219 15.5834 4.19792V11.2812C15.5834 11.657 15.4342 12.0173 15.1685 12.283C14.9028 12.5487 14.5425 12.6979 14.1667 12.6979H13.4584" stroke="#444444" stroke-width="1.41667" stroke-linecap="round" stroke-linejoin="round"/>
<path d="M8.49992 11.2812L12.0416 15.5312H4.95825L8.49992 11.2812Z" stroke="#444444" stroke-width="1.41667" stroke-linecap="round" stroke-linejoin="round"/>
</g>
<defs>
<clipPath id="clip0_154_878">
<rect width="17" height="17" fill="white" transform="translate(0 0.65625)"/>
</clipPath>
</defs>
</svg>
