<svg width="20" height="20" viewBox="0 0 20 20" fill="none" xmlns="http://www.w3.org/2000/svg">
<path fill-rule="evenodd" clip-rule="evenodd" d="M10 0C10.3853 0 10.6977 0.312361 10.6977 0.697671V0.931559C10.8011 0.933121 10.8894 0.936507 10.9717 0.943791C12.6556 1.09269 13.9903 2.42746 14.1393 4.11131C14.1528 4.26521 14.1528 4.43957 14.1528 4.69565V5.83346C14.1528 9.43279 11.4141 12.3924 7.90699 12.7424V14.6512C7.90699 16.8346 9.67702 18.6047 11.8605 18.6047H12.6813C13.8442 18.6047 14.8602 17.9705 15.4007 17.0286C14.0188 16.5647 13.0233 15.259 13.0233 13.7209C13.0233 11.7943 14.585 10.2325 16.5116 10.2325C18.4382 10.2325 20 11.7943 20 13.7209C20 15.526 18.6289 17.0108 16.8714 17.1909C16.1946 18.8388 14.5743 20 12.6813 20H11.8605C8.90642 20 6.51164 17.6052 6.51164 14.6512V12.7437C2.8574 12.3927 1.17851e-05 9.31391 1.17851e-05 5.56769L2.47019e-06 4.69571C-2.54368e-05 4.4396 -4.40312e-05 4.26523 0.0135653 4.11131C0.162468 2.42746 1.49725 1.09269 3.18111 0.943791C3.32592 0.930982 3.48885 0.930247 3.72094 0.930219V0.697671C3.72094 0.312361 4.0333 0 4.41862 0C4.80393 0 5.11629 0.312361 5.11629 0.697671V2.55813C5.11629 2.94344 4.80393 3.2558 4.41862 3.2558C4.0333 3.2558 3.72094 2.94344 3.72094 2.55813V2.32559C3.47591 2.32576 3.3804 2.32695 3.30401 2.33371C2.2937 2.42305 1.49283 3.22391 1.40349 4.23422C1.39604 4.31849 1.39536 4.42604 1.39536 4.73198V5.56769C1.39536 8.77866 3.99836 11.3816 7.20931 11.3816C10.2735 11.3816 12.7575 8.89763 12.7575 5.83346V4.73198C12.7575 4.42604 12.7568 4.31849 12.7493 4.23422C12.66 3.22391 11.8592 2.42305 10.8488 2.33371C10.8095 2.33022 10.765 2.32822 10.6977 2.32708V2.55813C10.6977 2.94344 10.3853 3.2558 10 3.2558C9.6147 3.2558 9.30233 2.94344 9.30233 2.55813V0.697671C9.30233 0.312361 9.6147 0 10 0ZM14.4186 13.7209C14.4186 12.565 15.3557 11.6279 16.5116 11.6279C17.6675 11.6279 18.6047 12.565 18.6047 13.7209C18.6047 14.8768 17.6675 15.8139 16.5116 15.8139C15.3557 15.8139 14.4186 14.8768 14.4186 13.7209Z" fill="#1C1C1C"/>
</svg>
