<svg width="28" height="29" viewBox="0 0 28 29" fill="none" xmlns="http://www.w3.org/2000/svg">
<rect y="0.5" width="28" height="28" rx="5" fill="#C1E7DA" fill-opacity="0.2"/>
<path d="M19.6484 12.3516L18.5703 13.4297C18.4766 13.5234 18.2891 13.5234 18.1719 13.4297L15.5703 10.8281C15.4766 10.7109 15.4766 10.5234 15.5703 10.4297L16.6484 9.35156C17.0938 8.90625 17.8203 8.90625 18.2422 9.35156L19.6484 10.7578C20.0938 11.1797 20.0938 11.9062 19.6484 12.3516ZM14.6562 11.3438C14.75 11.25 14.9375 11.25 15.0547 11.3438L17.6562 13.9453C17.7734 14.0625 17.7734 14.25 17.6562 14.3438L11.4922 20.5078L8.65625 21C8.25781 21.0703 7.92969 20.7422 8 20.3438L8.49219 17.5078L14.6562 11.3438ZM10.9062 16.9688C11.0234 17.1094 11.2344 17.1094 11.3516 16.9688L14.9609 13.3594C15.1016 13.2422 15.1016 13.0312 14.9609 12.9141C14.8438 12.7734 14.6328 12.7734 14.5156 12.9141L10.9062 16.5234C10.7656 16.6406 10.7656 16.8516 10.9062 16.9688ZM10.0625 18.9375V17.8125H9.19531L8.9375 19.3359L9.66406 20.0625L11.1875 19.8047V18.9375H10.0625Z" fill="#F16E00"/>
</svg>
