<svg width="24" height="25" viewBox="0 0 24 25" fill="none" xmlns="http://www.w3.org/2000/svg">
<path d="M7.24458 13.4914C7.11802 13.7633 7.11802 14.075 7.24458 14.3445C8.28052 16.5313 9.8813 17.6562 12.0118 17.6562C14.1422 17.6562 15.743 16.5289 16.779 14.3445C16.9055 14.075 16.9055 13.7633 16.7813 13.4938L16.779 13.4914L16.7766 13.4891C15.743 11.3047 14.1422 10.1797 12.0118 10.1797C9.8813 10.1797 8.28052 11.307 7.24458 13.4914ZM12.0118 11.6797C13.4672 11.6797 14.529 12.3828 15.3188 13.918C14.5313 15.4531 13.4672 16.1562 12.0118 16.1562C10.5563 16.1562 9.49458 15.4531 8.70474 13.918C9.49458 12.3828 10.5563 11.6797 12.0118 11.6797Z" fill="#7A40F2"/>
<path d="M10.7109 13.9297C10.7109 14.2778 10.8492 14.6116 11.0954 14.8578C11.3415 15.1039 11.6753 15.2422 12.0234 15.2422C12.3715 15.2422 12.7054 15.1039 12.9515 14.8578C13.1977 14.6116 13.3359 14.2778 13.3359 13.9297C13.3359 13.5816 13.1977 13.2478 12.9515 13.0016C12.7054 12.7555 12.3715 12.6172 12.0234 12.6172C11.6753 12.6172 11.3415 12.7555 11.0954 13.0016C10.8492 13.2478 10.7109 13.5816 10.7109 13.9297Z" fill="#7A40F2"/>
<path d="M20.625 7.49375H12.2109L9.46172 4.86406C9.42656 4.83125 9.37969 4.8125 9.33281 4.8125H3.375C2.96016 4.8125 2.625 5.14766 2.625 5.5625V19.4375C2.625 19.8523 2.96016 20.1875 3.375 20.1875H20.625C21.0398 20.1875 21.375 19.8523 21.375 19.4375V8.24375C21.375 7.82891 21.0398 7.49375 20.625 7.49375ZM19.6875 18.5H4.3125V6.5H8.73047L11.5336 9.18125H19.6875V18.5Z" fill="#7A40F2"/>
</svg>
