<svg width="22" height="21" viewBox="0 0 22 21" fill="none" xmlns="http://www.w3.org/2000/svg">
<path d="M21.1836 9.87311L12.1274 0.821543L11.5204 0.214512C11.382 0.0771135 11.195 0 11 0C10.8051 0 10.618 0.0771135 10.4797 0.214512L0.816455 9.87311C0.674731 10.0143 0.562724 10.1824 0.487045 10.3676C0.411367 10.5528 0.373551 10.7512 0.37583 10.9512C0.385205 11.7762 1.07192 12.4348 1.89692 12.4348H2.89302V20.0684H19.1071V12.4348H20.1243C20.525 12.4348 20.9024 12.2778 21.186 11.9942C21.3256 11.855 21.4363 11.6895 21.5115 11.5072C21.5867 11.325 21.6251 11.1296 21.6243 10.9325C21.6243 10.534 21.4672 10.1567 21.1836 9.87311ZM12.3125 18.3809H9.68755V13.5997H12.3125V18.3809ZM17.4196 10.7473V18.3809H13.8125V13.0372C13.8125 12.5192 13.393 12.0997 12.875 12.0997H9.12505C8.60708 12.0997 8.18755 12.5192 8.18755 13.0372V18.3809H4.58052V10.7473H2.33052L11.0024 2.08248L11.5438 2.62389L19.6719 10.7473H17.4196Z" fill="#7A40F2"/>
</svg>
