<svg width="24" height="25" viewBox="0 0 24 25" fill="none" xmlns="http://www.w3.org/2000/svg">
<g clip-path="url(#clip0_461_2595)">
<path d="M3 12.0371C3 13.219 3.23279 14.3893 3.68508 15.4813C4.13738 16.5732 4.80031 17.5653 5.63604 18.4011C6.47177 19.2368 7.46392 19.8997 8.55585 20.352C9.64778 20.8043 10.8181 21.0371 12 21.0371C13.1819 21.0371 14.3522 20.8043 15.4442 20.352C16.5361 19.8997 17.5282 19.2368 18.364 18.4011C19.1997 17.5653 19.8626 16.5732 20.3149 15.4813C20.7672 14.3893 21 13.219 21 12.0371C21 10.8552 20.7672 9.68489 20.3149 8.59296C19.8626 7.50103 19.1997 6.50888 18.364 5.67315C17.5282 4.83742 16.5361 4.17449 15.4442 3.72219C14.3522 3.2699 13.1819 3.03711 12 3.03711C10.8181 3.03711 9.64778 3.2699 8.55585 3.72219C7.46392 4.17449 6.47177 4.83742 5.63604 5.67315C4.80031 6.50888 4.13738 7.50103 3.68508 8.59296C3.23279 9.68489 3 10.8552 3 12.0371Z" stroke="#7A40F2" stroke-width="2" stroke-linecap="round" stroke-linejoin="round"/>
<path d="M12 12.0371L15 14.0371" stroke="#7A40F2" stroke-width="2" stroke-linecap="round" stroke-linejoin="round"/>
<path d="M12 7.03711V12.0371" stroke="#7A40F2" stroke-width="2" stroke-linecap="round" stroke-linejoin="round"/>
</g>
<defs>
<clipPath id="clip0_461_2595">
<rect width="24" height="24" fill="white" transform="translate(0 0.0371094)"/>
</clipPath>
</defs>
</svg>
