<svg width="150" height="139" viewBox="0 0 150 139" fill="none" xmlns="http://www.w3.org/2000/svg">
<path d="M20.7613 0.0423482C22.2361 -0.0410903 23.7428 0.0228029 25.2215 0.032663L33.1601 0.0842732L55.3938 0.0903191L128.988 0.094846C134.969 0.11205 140.27 2.3192 144.449 6.23826C147.152 8.77354 149.045 12.5805 149.626 16.0736C149.962 18.0926 149.899 20.1208 149.897 22.156V29.4882C150.007 38.8236 150.016 48.1591 149.922 57.4947C149.864 64.1671 149.876 70.8393 149.957 77.5112L150 118.654C149.994 119.888 149.993 121.137 149.832 122.363C149.801 122.62 149.764 122.876 149.721 123.131C149.678 123.386 149.629 123.64 149.574 123.893C149.519 124.147 149.459 124.399 149.392 124.649C149.326 124.9 149.254 125.15 149.176 125.398C149.098 125.646 149.015 125.892 148.926 126.137C148.837 126.382 148.742 126.625 148.642 126.866C148.541 127.107 148.436 127.346 148.324 127.583C148.213 127.82 148.096 128.054 147.974 128.287C147.852 128.519 147.725 128.749 147.592 128.976C147.46 129.204 147.322 129.428 147.179 129.65C147.036 129.872 146.888 130.091 146.735 130.307C146.582 130.523 146.425 130.737 146.262 130.947C146.099 131.156 145.931 131.363 145.759 131.567C145.587 131.77 145.41 131.97 145.229 132.166C145.047 132.363 144.861 132.556 144.671 132.745C144.481 132.934 144.286 133.119 144.087 133.301C140.063 136.955 134.98 138.671 129.389 138.627L51.4424 138.651L29.3088 138.647C25.6972 138.652 21.0195 138.966 17.5577 138.492C13.5873 137.948 9.50855 136.217 6.5533 133.682C2.72627 130.399 0.259418 125.532 0.0626011 120.719C-0.0234944 118.613 0.0327141 116.49 0.031943 114.382L0.0853753 99.9198L0.0950922 52.7381L0.106625 29.2622L0.0148404 21.6665C0.00742014 20.1272 -0.0602011 18.5446 0.171249 17.017C0.745608 13.2267 2.50063 9.33381 5.36006 6.52077C9.55516 2.39355 14.6213 0.216933 20.7613 0.0423482Z" fill="#DDE5F6"/>
<path d="M63.2512 10.8C63.6017 10.769 63.9659 10.7737 64.3184 10.7704C76.9446 10.6503 89.5842 10.8123 102.213 10.7786L115.106 10.7726C117.212 10.7726 119.633 10.5906 121.701 10.8771C123.327 11.1024 124.6 11.7425 125.766 12.8063C127.003 13.9361 127.866 15.388 128.146 16.9797C128.471 18.8282 128.308 20.872 128.315 22.7452L128.359 32.8609L128.348 72.9371C128.359 76.4491 128.348 79.9609 128.316 83.4727C128.31 85.3643 128.552 88.1645 128.063 89.9589C128.017 90.1286 127.964 90.2965 127.904 90.4627C127.845 90.629 127.78 90.7932 127.708 90.9552C127.637 91.1174 127.559 91.2771 127.476 91.4343C127.392 91.5915 127.303 91.7459 127.208 91.8974C127.114 92.0489 127.013 92.1973 126.907 92.3424C126.801 92.4876 126.69 92.6293 126.574 92.7674C126.457 92.9055 126.336 93.0398 126.21 93.1702C126.083 93.3007 125.952 93.427 125.816 93.5491C123.536 95.6411 120.772 95.536 117.801 95.5203L113.1 95.5073L113.075 100.146C113.069 102.809 113.318 105.292 111.111 107.332C110.241 108.136 109.127 108.803 107.925 109.081C105.802 109.572 102.114 109.355 99.8458 109.357L86.7829 109.345L44.0239 109.306L33.0592 109.335C31.1709 109.341 29.0939 109.507 27.2365 109.237C25.9368 109.049 24.5765 108.319 23.6501 107.471C22.6662 106.57 22.0113 105.37 21.7227 104.122C21.3962 102.709 21.5858 99.9247 21.5861 98.3458L21.5463 88.1006L21.5607 65.9985L21.547 60.1295C21.5438 58.9556 21.4072 57.5901 21.6807 56.4463C21.9969 55.1242 22.8477 53.9813 23.871 53.0355C24.651 52.3144 25.5929 51.8868 26.6596 51.6524C28.3409 51.2827 30.2513 51.438 31.9721 51.4405L38.9161 51.4541L38.9188 37.9492C38.9152 35.7964 38.7882 33.6033 38.8936 31.4543C38.9048 31.2275 38.9096 30.9795 39.0396 30.7803C39.0588 30.751 39.0804 30.7233 39.1001 30.6943C40.1902 29.0935 43.4246 26.4787 45.0269 25.0051C47.5013 22.7295 49.9759 20.2718 52.5663 18.126C53.4711 17.3766 54.0764 17.3904 55.2458 17.4526C55.5182 16.0898 56.1059 14.8026 57.0633 13.7263C58.6726 11.9177 60.7664 11.0326 63.2512 10.8Z" fill="black"/>
<path d="M54.8571 20.2606C55.0387 20.4438 54.951 28.5466 54.95 29.5266L44.9523 29.5564L44.904 29.5065C45.0502 29.0621 51.1634 23.7135 52.116 22.833C53.0371 21.9817 53.8945 21.0733 54.8571 20.2606Z" fill="#FFB400"/>
<path d="M58.2778 17.4936C58.6126 16.5164 59.052 15.664 59.8384 14.9247C60.6845 14.1296 61.7012 13.7154 62.8963 13.5836C64.8121 13.3723 67.2643 13.538 69.2476 13.5431L81.4094 13.5556L120.756 13.5478C121.874 13.5516 123.084 14.1728 123.854 14.8967C125.731 16.663 125.404 18.9058 125.375 21.1695C125.219 21.8002 124.971 22.4108 124.771 23.0309C123.968 25.5269 122.987 27.8979 121.99 30.327C121.708 31.0137 121.477 32.0228 121.01 32.6076C120.918 29.6748 120.974 26.7248 120.963 23.7899C120.958 22.5933 121.117 21.1552 120.855 19.9937C120.726 19.424 120.383 18.8716 119.935 18.4652C119.398 17.9788 118.672 17.605 117.919 17.5191C115.974 17.2968 113.837 17.472 111.87 17.4736L99.6062 17.4809L58.2778 17.4936Z" fill="#FFB400"/>
<path d="M121.01 32.6076C121.477 32.0228 121.708 31.0137 121.99 30.327C122.987 27.8979 123.968 25.5269 124.771 23.0309C124.971 22.4108 125.219 21.8002 125.375 21.1695L125.376 68.2728L125.399 82.2141L125.406 86.6453C125.405 87.5025 125.45 88.3968 125.342 89.248C125.228 90.147 124.728 91.0939 124.037 91.7315C123.97 91.7929 123.902 91.8522 123.831 91.9093C123.76 91.9663 123.687 92.0211 123.612 92.0735C123.537 92.126 123.461 92.176 123.382 92.2236C123.303 92.2712 123.223 92.3162 123.141 92.3586C123.059 92.4011 122.976 92.4409 122.891 92.4781C122.806 92.5153 122.719 92.5498 122.632 92.5814C122.544 92.6131 122.456 92.642 122.366 92.6682C122.276 92.6942 122.186 92.7174 122.095 92.7376C120.869 93.0118 119.4 92.8908 118.14 92.8937C116.456 92.8973 114.77 92.9092 113.087 92.8875L113.056 88.5725C114.434 88.5874 118.039 88.7979 119.159 88.5124C119.649 88.3878 120.07 88.1384 120.423 87.8035C120.826 87.4203 120.882 86.7208 120.917 86.2053C121.034 84.4682 120.944 82.6742 120.945 80.9312L120.97 71.6781L120.975 45.7495C120.982 41.3813 120.843 36.9704 121.01 32.6076Z" fill="#F16E00"/>
<path d="M58.1534 20.3464L118.005 20.3527L117.968 85.9561L113.054 85.9463C112.992 82.4275 113.039 78.9 113.033 75.3803L112.959 63.873C112.964 62.0284 113.204 58.0702 112.824 56.4099C112.56 55.2535 111.888 54.2038 110.99 53.3693C110.863 53.2501 110.73 53.1359 110.593 53.0267C110.456 52.9176 110.313 52.8138 110.167 52.7155C110.02 52.6171 109.869 52.5244 109.714 52.4376C109.559 52.3507 109.401 52.2698 109.239 52.195C109.077 52.1202 108.911 52.0516 108.743 51.9894C108.575 51.927 108.404 51.8712 108.231 51.8219C108.058 51.7727 107.883 51.73 107.706 51.6941C107.529 51.6581 107.35 51.6289 107.171 51.6065C105.116 51.3436 102.617 51.5071 100.514 51.5025L87.7549 51.4734L42.1459 51.4668C42.0379 45.0934 42.1587 38.7082 42.1608 32.3334C45.2302 32.3011 48.305 32.3365 51.3754 32.3302C52.8295 32.327 54.4849 32.4679 55.9051 32.2012C56.4132 32.1058 56.8083 31.9054 57.174 31.5637C57.5725 31.1915 57.9094 30.6857 58.0365 30.1719C58.3023 29.0971 58.1421 27.7474 58.1426 26.6351L58.1534 20.3464Z" fill="#F16E00"/>
<path d="M109.112 60.068C109.375 61.5349 109.215 63.2308 109.216 64.7182L109.233 73.7192L109.262 95.2283L109.26 102.303C109.261 103.612 109.323 104.948 109.231 106.253C109.185 106.897 108.961 107.468 108.544 107.989C107.995 108.675 107.159 109.236 106.231 109.361C105.223 109.496 104.134 109.418 103.115 109.413L97.577 109.39L78.3193 109.38L44.8111 109.399L33.8862 109.391C31.9622 109.388 29.9994 109.46 28.0819 109.353C27.228 109.305 26.4363 109.068 25.7513 108.583C24.8785 107.965 24.3773 107.048 24.2453 106.05C24.1502 105.331 24.2068 104.567 24.2117 103.842L24.24 100.134C25.7787 100.338 27.3048 100.63 28.8488 100.802C39.3967 101.978 49.9698 101.924 60.4188 100.038C62.2922 99.7 64.1231 99.1752 65.9545 98.6839C79.0987 95.1585 89.954 88.7865 98.3015 78.6849C99.8457 76.8164 101.314 74.9706 102.577 72.9246C104.006 70.6135 105.287 68.2347 106.422 65.7882C107.259 63.9678 107.856 61.7556 109.07 60.1234C109.084 60.1047 109.098 60.0865 109.112 60.068Z" fill="black"/>
<path d="M24.7646 97.1047C24.876 93.8805 24.7804 90.6254 24.7864 87.398L24.7775 69.5759C24.7466 65.8037 24.5753 61.8194 24.7543 58.0725C24.7773 57.5906 24.796 57.1145 25.0157 56.6684C25.4439 55.7987 26.3376 54.9455 27.3274 54.6264C28.367 54.2914 33.2546 54.5174 34.6461 54.5198L46.4508 54.5218L84.9146 54.5054L99.1867 54.5049C101.384 54.5057 103.587 54.4615 105.783 54.5003C106.433 54.5117 107.057 54.4911 107.649 54.7731C108.653 55.2517 109.3 56.0606 109.637 57.0391C109.623 57.0576 109.608 57.0758 109.594 57.0944C108.381 58.7267 107.783 60.9389 106.946 62.7593C105.812 65.2058 104.53 67.5846 103.102 69.8957C101.838 71.9417 100.37 73.7875 98.8261 75.656C90.4786 85.7576 79.6233 92.1296 66.4791 95.655C64.6477 96.1463 62.8168 96.6711 60.9434 97.0091C50.4944 98.8947 39.9213 98.9493 29.3734 97.7734C27.8294 97.6014 26.3033 97.3095 24.7646 97.1047Z" fill="#F16E00"/>
<path d="M90.2993 61.2842C91.3454 61.1515 92.4738 61.4743 93.3713 61.9608C94.7582 62.7128 95.9176 63.8621 96.3277 65.3273C96.7908 66.9815 96.3373 68.7261 95.397 70.1645C94.0629 72.2056 90.5156 75.433 87.9356 75.9702C86.5028 76.2683 85.4404 75.7897 84.2644 75.1151C81.9156 73.5273 78.4069 70.7505 77.9108 67.9508C77.6414 66.4305 78.0845 64.7976 79.0699 63.5592C79.1265 63.4873 79.1849 63.4168 79.2452 63.3476C79.3056 63.2784 79.3679 63.2106 79.4318 63.1442C79.4958 63.0778 79.5616 63.013 79.6291 62.9497C79.6966 62.8864 79.7658 62.8247 79.8366 62.7645C79.9074 62.7044 79.9799 62.6459 80.0539 62.589C80.1278 62.5322 80.2033 62.4772 80.2803 62.4238C80.3573 62.3705 80.4356 62.3189 80.5152 62.2691C80.595 62.2194 80.676 62.1715 80.7584 62.1254C80.8406 62.0794 80.9241 62.0353 81.0088 61.9931C81.0935 61.9509 81.1793 61.9107 81.2662 61.8725C81.353 61.8342 81.4408 61.798 81.5295 61.7638C81.6184 61.7296 81.7081 61.6975 81.7986 61.6674C81.8892 61.6372 81.9805 61.6092 82.0724 61.5834C82.1645 61.5575 82.2572 61.5337 82.3506 61.512C82.4439 61.4904 82.5378 61.4709 82.6321 61.4536C82.7265 61.4363 82.8213 61.4211 82.9164 61.4082C84.4733 61.2048 85.8905 61.5389 87.1456 62.4122C88.1888 61.7576 89.034 61.399 90.2993 61.2842Z" fill="black"/>
<path d="M90.133 61.9099C91.2296 61.7885 92.2615 62.0574 93.1893 62.5909C94.4588 63.3211 95.3954 64.3698 95.7362 65.7322C96.1137 67.2416 95.6737 68.631 94.7916 69.9084C93.5081 71.7675 90.1109 75.0245 87.6708 75.4555C86.3094 75.6959 85.1881 74.996 84.1383 74.3049L84.0436 74.2368C81.8915 72.6768 78.901 70.2865 78.5804 67.6181C78.5693 67.533 78.5605 67.4478 78.5541 67.3625C78.5477 67.2771 78.5437 67.1916 78.542 67.1059C78.5401 67.0204 78.5406 66.9348 78.5435 66.8492C78.5464 66.7636 78.5516 66.6782 78.5591 66.5928C78.5666 66.5076 78.5765 66.4225 78.5886 66.3375C78.6007 66.2527 78.6151 66.1682 78.6318 66.084C78.6486 65.9998 78.6676 65.916 78.6888 65.8327C78.7101 65.7493 78.7336 65.6665 78.7593 65.5843C78.7851 65.5022 78.8131 65.4205 78.8432 65.3395C78.8734 65.2586 78.9057 65.1784 78.9402 65.0989C78.9747 65.0195 79.0114 64.9409 79.0502 64.8631C79.0891 64.7854 79.13 64.7086 79.1729 64.6328C79.2159 64.557 79.2609 64.4821 79.3078 64.4083C79.3549 64.3345 79.4039 64.2619 79.4548 64.1903C79.5058 64.1189 79.5587 64.0486 79.6135 63.9795C79.6683 63.9105 79.7249 63.8428 79.7834 63.7763C79.8366 63.7149 79.8914 63.6548 79.9479 63.596C80.0043 63.5372 80.0623 63.4796 80.1218 63.4234C80.1813 63.3672 80.2423 63.3125 80.3048 63.2591C80.3673 63.2057 80.4312 63.1538 80.4964 63.1033C80.5618 63.0529 80.6284 63.004 80.6962 62.9566C80.7641 62.9092 80.8333 62.8633 80.9038 62.8191C80.974 62.7749 81.0455 62.7323 81.1183 62.6914C81.191 62.6504 81.2647 62.6112 81.3394 62.5736C81.4142 62.5361 81.49 62.5002 81.5666 62.4662C81.6433 62.4321 81.7208 62.3998 81.7993 62.3693C81.8778 62.3388 81.9571 62.3101 82.037 62.2832C82.117 62.2563 82.1977 62.2313 82.279 62.2082C82.3603 62.185 82.4422 62.1637 82.5247 62.1442C82.6072 62.1248 82.6902 62.1073 82.7736 62.0917C82.857 62.0761 82.9408 62.0624 83.025 62.0506C83.1092 62.0388 83.1936 62.029 83.2782 62.0211C84.8528 61.8818 85.9679 62.4036 87.1361 63.3062C88.0037 62.4943 88.9183 62.0999 90.133 61.9099Z" fill="#FEFEFE"/>
<path d="M62.6629 63.3517L62.756 63.3772C62.9534 63.6909 62.763 71.9225 62.7639 73.0634L72.9562 73.0473L72.9512 86.4212L63.0703 86.421L63.0677 95.5971L49.2097 95.544C48.9934 95.3305 49.0613 87.5235 49.0532 86.4527C45.6365 86.3323 42.1661 86.425 38.7468 86.4489L38.785 73.0691L49.1132 73.0721C49.1569 69.8467 49.1152 66.615 49.1128 63.3889C53.6297 63.4031 58.1464 63.3907 62.6629 63.3517Z" fill="black"/>
<path d="M65.1368 76.1984C66.5998 76.0996 68.144 76.1283 69.6111 76.1731L69.622 83.3527L59.8684 83.3557L59.8232 92.5871L54.9173 92.5789C54.1224 92.577 53.2181 92.6504 52.441 92.5238C53.227 92.4475 54.0464 92.4879 54.8372 92.4874C54.7306 90.6259 54.7138 85.9461 55.2454 84.2544C55.5594 83.2557 56.0641 82.3325 56.9236 81.6414C58.2324 80.5889 60.0595 80.222 61.6162 79.5928C64.1883 78.5533 66.7994 77.5044 69.2531 76.2429C67.8922 76.2372 66.4901 76.3128 65.1368 76.1984Z" fill="#DDE5F6"/>
<path d="M52.4091 66.4888C54.7673 66.4501 57.1317 66.4797 59.4904 66.4766L59.4236 76.1395C61.327 76.2045 63.2327 76.1661 65.1368 76.1984C66.4901 76.3128 67.8923 76.2371 69.2531 76.2428C66.7994 77.5044 64.1883 78.5532 61.6162 79.5927C60.0595 80.222 58.2324 80.5889 56.9236 81.6413C56.0641 82.3325 55.5594 83.2557 55.2454 84.2543C54.7139 85.9461 54.7306 90.6259 54.8372 92.4874C54.0464 92.4879 53.2271 92.4475 52.441 92.5238C52.2042 92.0166 52.3543 84.4867 52.3534 83.3016L42.0672 83.31L42.083 76.0612L52.3812 76.0574L52.4091 66.4888Z" fill="#FEFEFE"/>
</svg>
