<svg width="110" height="101" viewBox="0 0 110 101" fill="none" xmlns="http://www.w3.org/2000/svg">
<path d="M15.1124 0.0308257C16.1859 -0.02991 17.2826 0.0165985 18.359 0.0237757L24.1376 0.0613433L40.3217 0.0657442L93.8915 0.0690393C98.2456 0.0815621 102.104 1.68817 105.146 4.54089C107.113 6.38635 108.491 9.15747 108.914 11.7001C109.159 13.1698 109.113 14.6462 109.111 16.1276V21.4648C109.192 28.2601 109.198 35.0555 109.129 41.851C109.087 46.7079 109.096 51.5647 109.155 56.4212L109.187 86.3693C109.182 87.2674 109.181 88.1768 109.064 89.0693C109.042 89.2561 109.015 89.4423 108.983 89.6281C108.952 89.8138 108.916 89.9989 108.876 90.1832C108.837 90.3676 108.792 90.551 108.744 90.7336C108.696 90.9162 108.643 91.0978 108.587 91.2784C108.53 91.4589 108.469 91.6383 108.405 91.8165C108.34 91.9946 108.271 92.1714 108.198 92.3469C108.125 92.5224 108.048 92.6963 107.967 92.8688C107.886 93.0412 107.801 93.2121 107.712 93.3812C107.623 93.5503 107.531 93.7176 107.434 93.8831C107.338 94.0486 107.237 94.2121 107.133 94.3737C107.029 94.5353 106.922 94.6947 106.81 94.852C106.699 95.0094 106.584 95.1645 106.465 95.3173C106.347 95.4701 106.225 95.6206 106.1 95.7687C105.974 95.9167 105.845 96.0623 105.713 96.2053C105.581 96.3483 105.446 96.4887 105.307 96.6264C105.169 96.7641 105.027 96.899 104.883 97.0312C101.953 99.6907 98.2535 100.94 94.1838 100.908L37.4455 100.925L21.3342 100.922C18.7053 100.926 15.3003 101.155 12.7804 100.809C9.89033 100.413 6.92137 99.1534 4.77021 97.3083C1.98448 94.9188 0.188833 91.3758 0.045568 87.8725C-0.0171018 86.3399 0.023813 84.7941 0.0232516 83.2598L0.0621456 72.7327L0.0692186 38.3886L0.0776135 21.3002L0.0108025 15.7712C0.0054012 14.6508 -0.043821 13.4988 0.124654 12.3869C0.542735 9.62785 1.82023 6.79417 3.90164 4.74653C6.9553 1.74229 10.643 0.157908 15.1124 0.0308257Z" fill="#8D8D8D" fill-opacity="0.54"/>
<path d="M46.0412 7.86147C46.2963 7.83889 46.5613 7.84234 46.8179 7.83993C56.0087 7.75249 65.2092 7.87045 74.4016 7.84592L83.7871 7.84154C85.3199 7.84154 87.0819 7.70905 88.5872 7.91757C89.7712 8.08162 90.6977 8.54751 91.546 9.32191C92.4468 10.1442 93.0752 11.2011 93.2787 12.3597C93.5151 13.7053 93.3967 15.193 93.402 16.5565L93.4338 23.9198L93.4261 53.0917C93.4336 55.6481 93.4258 58.2044 93.4027 60.7607C93.398 62.1376 93.5744 64.1759 93.2187 65.4821C93.1846 65.6056 93.1459 65.7278 93.1028 65.8488C93.0596 65.9698 93.012 66.0893 92.96 66.2073C92.9079 66.3253 92.8515 66.4416 92.7908 66.556C92.7302 66.6704 92.6653 66.7828 92.5962 66.8931C92.5272 67.0034 92.4541 67.1114 92.377 67.2171C92.2999 67.3227 92.219 67.4258 92.1343 67.5264C92.0496 67.6269 91.9612 67.7247 91.8692 67.8196C91.7772 67.9146 91.6818 68.0065 91.5829 68.0954C89.9228 69.6181 87.9111 69.5417 85.7482 69.5302L82.3265 69.5208L82.3082 72.8976C82.3037 74.8356 82.4856 76.6432 80.8789 78.128C80.2455 78.7134 79.4345 79.199 78.5595 79.4014C77.0141 79.7588 74.3299 79.6004 72.6787 79.6019L63.1701 79.5936L32.0454 79.565L24.0641 79.5859C22.6896 79.5902 21.1777 79.7117 19.8256 79.5151C18.8796 79.3777 17.8894 78.8467 17.2151 78.2293C16.4989 77.5736 16.0222 76.7001 15.8121 75.7914C15.5745 74.7631 15.7124 72.7363 15.7127 71.587L15.6837 64.1293L15.6942 48.0411L15.6842 43.7689C15.6819 42.9145 15.5825 41.9205 15.7815 41.0879C16.0117 40.1255 16.631 39.2936 17.3759 38.6051C17.9437 38.0803 18.6293 37.769 19.4058 37.5984C20.6296 37.3292 22.0202 37.4423 23.2727 37.4441L28.3274 37.454L28.3294 27.6236C28.3267 26.0566 28.2343 24.4602 28.311 22.896C28.3191 22.7309 28.3226 22.5504 28.4173 22.4053C28.4313 22.384 28.447 22.3639 28.4613 22.3428C29.2548 21.1775 31.6092 19.2742 32.7755 18.2015C34.5766 16.5451 36.3779 14.7561 38.2635 13.1942C38.9221 12.6487 39.3627 12.6587 40.2139 12.704C40.4122 11.7119 40.84 10.775 41.5369 9.9916C42.7084 8.67504 44.2324 8.03082 46.0412 7.86147Z" fill="black"/>
<path d="M39.9309 14.748C40.0631 14.8815 39.9993 20.7796 39.9985 21.4929L32.7212 21.5146L32.686 21.4783C32.7924 21.1548 37.2423 17.2615 37.9357 16.6206C38.6062 16.0009 39.2303 15.3396 39.9309 14.748Z" fill="#A378FD"/>
<path d="M42.4207 12.7339C42.6645 12.0226 42.9843 11.4021 43.5567 10.864C44.1726 10.2852 44.9127 9.98372 45.7826 9.88776C47.1771 9.73396 48.9621 9.85458 50.4057 9.85827L59.2585 9.86737L87.899 9.86172C88.7133 9.86449 89.594 10.3167 90.1542 10.8436C91.521 12.1293 91.2824 13.7619 91.2616 15.4096C91.1482 15.8687 90.9671 16.3132 90.8219 16.7645C90.2376 18.5814 89.5235 20.3073 88.7976 22.0755C88.5923 22.5753 88.4238 23.3099 88.0845 23.7355C88.0175 21.6007 88.0578 19.4534 88.0498 17.3171C88.0464 16.446 88.1621 15.3993 87.971 14.5538C87.8773 14.139 87.6278 13.737 87.3013 13.4411C86.9107 13.0871 86.3821 12.815 85.834 12.7524C84.4182 12.5907 82.8626 12.7182 81.4308 12.7194L72.5041 12.7247L42.4207 12.7339Z" fill="#9C6CFF"/>
<path d="M88.0846 23.7356C88.4239 23.3099 88.5924 22.5754 88.7977 22.0755C89.5236 20.3074 90.2377 18.5815 90.822 16.7646C90.9672 16.3132 91.1483 15.8688 91.2617 15.4097L91.2624 49.6967L91.2788 59.8447L91.2839 63.0702C91.2833 63.6941 91.316 64.3451 91.2375 64.9647C91.1548 65.6191 90.7908 66.3083 90.2875 66.7725C90.2392 66.8172 90.1893 66.8603 90.1377 66.9019C90.0861 66.9434 90.0331 66.9833 89.9785 67.0214C89.924 67.0596 89.8681 67.096 89.8109 67.1307C89.7536 67.1653 89.6951 67.1981 89.6355 67.2289C89.5758 67.2599 89.515 67.2889 89.4532 67.3159C89.3914 67.343 89.3286 67.3681 89.2649 67.3911C89.2012 67.4142 89.1367 67.4352 89.0714 67.4543C89.0061 67.4732 88.9402 67.4901 88.8737 67.5048C87.9813 67.7044 86.9126 67.6164 85.9949 67.6184C84.7696 67.6211 83.542 67.6297 82.3168 67.6139L82.2946 64.473C83.2973 64.4838 85.9217 64.6371 86.7373 64.4292C87.0933 64.3386 87.4004 64.157 87.657 63.9132C87.9505 63.6343 87.9913 63.1251 88.0166 62.7499C88.1017 61.4854 88.0359 60.1796 88.0371 58.9108L88.0553 52.1754L88.059 33.3017C88.0638 30.1221 87.9625 26.9113 88.0846 23.7356Z" fill="#F16E00"/>
<path d="M42.3303 14.8103L85.8966 14.8149L85.8696 62.5683L82.2933 62.5611C82.248 59.9998 82.2823 57.4321 82.2778 54.8701L82.224 46.4938C82.2273 45.1511 82.4023 42.2698 82.1258 41.0613C81.9332 40.2195 81.4442 39.4555 80.7906 38.848C80.6979 38.7612 80.6016 38.6781 80.5015 38.5986C80.4016 38.5192 80.2982 38.4437 80.1914 38.3721C80.0847 38.3005 79.9749 38.233 79.8621 38.1698C79.7494 38.1065 79.634 38.0477 79.516 37.9932C79.3979 37.9388 79.2776 37.8889 79.1552 37.8436C79.0327 37.7982 78.9084 37.7575 78.7824 37.7217C78.6562 37.6858 78.5287 37.6548 78.3999 37.6286C78.271 37.6024 78.1412 37.5812 78.0105 37.5649C76.5147 37.3735 74.6961 37.4925 73.1649 37.4892L63.8776 37.468L30.6783 37.4632C30.5997 32.8239 30.6877 28.1761 30.6892 23.5358C32.9234 23.5123 35.1616 23.5381 37.3966 23.5335C38.455 23.5312 39.66 23.6337 40.6937 23.4396C41.0636 23.3701 41.3513 23.2243 41.6175 22.9755C41.9075 22.7046 42.1527 22.3364 42.2453 21.9624C42.4387 21.1801 42.3221 20.1976 42.3225 19.3879L42.3303 14.8103Z" fill="#F16E00"/>
<path d="M79.4238 43.7241C79.6148 44.792 79.4984 46.0264 79.4995 47.1091L79.5119 53.661L79.5328 69.3177L79.5316 74.4674C79.5323 75.4201 79.5772 76.3931 79.5101 77.3424C79.4771 77.8114 79.3138 78.2274 79.0105 78.6064C78.611 79.1057 78.0024 79.5142 77.3267 79.6049C76.5931 79.7031 75.8001 79.6464 75.0581 79.6431L71.0272 79.6261L57.0094 79.6186L32.6184 79.6325L24.6661 79.6271C23.2656 79.625 21.8368 79.6769 20.4411 79.599C19.8195 79.5643 19.2432 79.392 18.7446 79.0389C18.1093 78.5888 17.7444 77.9217 17.6484 77.1947C17.5792 76.6719 17.6203 76.1151 17.6239 75.588L17.6445 72.8883C18.7646 73.0374 19.8754 73.2498 20.9993 73.3751C28.6772 74.231 36.3735 74.1913 43.9794 72.8187C45.3431 72.5727 46.6758 72.1907 48.0089 71.8331C57.5767 69.2669 65.4784 64.6286 71.5546 57.2756C72.6787 55.9155 73.7471 54.5719 74.6668 53.0826C75.7068 51.4003 76.6397 49.6688 77.4654 47.888C78.0746 46.5629 78.5096 44.9525 79.3929 43.7644C79.403 43.7508 79.4136 43.7376 79.4238 43.7241Z" fill="black"/>
<path d="M18.0264 70.6835C18.1075 68.3366 18.0379 65.9672 18.0423 63.6179L18.0358 50.645C18.0133 47.8992 17.8886 44.9989 18.0189 42.2716C18.0357 41.9208 18.0493 41.5743 18.2092 41.2495C18.5209 40.6165 19.1714 39.9954 19.8919 39.7631C20.6486 39.5193 24.2063 39.6838 25.2192 39.6855L33.812 39.687L61.8102 39.675L72.199 39.6747C73.7982 39.6752 75.4021 39.6431 77.0005 39.6713C77.4734 39.6796 77.928 39.6646 78.3586 39.8699C79.0893 40.2183 79.5606 40.8071 79.8057 41.5193C79.7955 41.5328 79.7849 41.546 79.7748 41.5596C78.8915 42.7477 78.4565 44.3581 77.8473 45.6831C77.0216 47.464 76.0887 49.1955 75.0487 50.8778C74.129 52.3671 73.0606 53.7107 71.9366 55.0708C65.8603 62.4238 57.9586 67.0621 48.3908 69.6283C47.0577 69.9858 45.725 70.3679 44.3613 70.6139C36.7554 71.9865 29.0591 72.0262 21.3812 71.1703C20.2573 71.045 19.1465 70.8326 18.0264 70.6835Z" fill="#7A40F2"/>
<path d="M65.7299 44.6095C66.4913 44.5128 67.3127 44.7478 67.966 45.102C68.9755 45.6493 69.8195 46.4859 70.118 47.5525C70.4551 48.7566 70.125 50.0265 69.4405 51.0735C68.4694 52.5593 65.8873 54.9085 64.0093 55.2995C62.9664 55.5166 62.193 55.1682 61.337 54.6771C59.6273 53.5213 57.0732 51.5001 56.7121 49.4621C56.516 48.3555 56.8386 47.1669 57.5559 46.2654C57.597 46.2131 57.6396 46.1618 57.6835 46.1114C57.7275 46.061 57.7727 46.0117 57.8193 45.9634C57.8659 45.9151 57.9137 45.8679 57.9629 45.8218C58.012 45.7757 58.0624 45.7308 58.1139 45.687C58.1655 45.6432 58.2182 45.6006 58.2721 45.5592C58.3259 45.5179 58.3808 45.4778 58.4369 45.439C58.4929 45.4002 58.55 45.3626 58.6079 45.3264C58.666 45.2902 58.725 45.2554 58.7849 45.2218C58.8448 45.1883 58.9056 45.1562 58.9672 45.1255C59.0289 45.0948 59.0913 45.0655 59.1545 45.0377C59.2177 45.0098 59.2816 44.9834 59.3463 44.9585C59.411 44.9337 59.4762 44.9103 59.5421 44.8884C59.608 44.8664 59.6745 44.846 59.7414 44.8272C59.8085 44.8084 59.8759 44.7911 59.9439 44.7753C60.0118 44.7595 60.0801 44.7453 60.1488 44.7328C60.2175 44.7202 60.2865 44.7091 60.3558 44.6997C61.4891 44.5516 62.5207 44.7948 63.4343 45.4305C64.1936 44.9541 64.8088 44.693 65.7299 44.6095Z" fill="black"/>
<path d="M65.6089 45.0649C66.4071 44.9766 67.1583 45.1723 67.8336 45.5606C68.7577 46.0922 69.4394 46.8555 69.6875 47.8472C69.9623 48.9459 69.642 49.9573 69 50.8871C68.0657 52.2404 65.5928 54.6112 63.8166 54.9249C62.8257 55.0999 62.0095 54.5905 61.2453 54.0874L61.1764 54.0378C59.6099 52.9023 57.433 51.1623 57.1996 49.22C57.1916 49.1581 57.1852 49.0961 57.1805 49.0339C57.1759 48.9718 57.1729 48.9096 57.1717 48.8472C57.1703 48.7849 57.1707 48.7226 57.1728 48.6603C57.1749 48.598 57.1787 48.5358 57.1841 48.4737C57.1896 48.4116 57.1968 48.3497 57.2056 48.2879C57.2144 48.2261 57.2249 48.1646 57.237 48.1033C57.2493 48.042 57.2631 47.981 57.2786 47.9204C57.294 47.8597 57.3111 47.7994 57.3299 47.7396C57.3486 47.6798 57.369 47.6204 57.391 47.5614C57.4129 47.5025 57.4365 47.4441 57.4616 47.3863C57.4867 47.3284 57.5134 47.2712 57.5417 47.2146C57.5699 47.158 57.5997 47.1021 57.631 47.047C57.6622 46.9918 57.695 46.9373 57.7291 46.8835C57.7634 46.8298 57.7991 46.777 57.8362 46.7249C57.8733 46.6729 57.9118 46.6217 57.9517 46.5714C57.9915 46.5212 58.0327 46.4719 58.0753 46.4235C58.1141 46.3788 58.154 46.3351 58.195 46.2923C58.2361 46.2494 58.2783 46.2075 58.3217 46.1666C58.365 46.1258 58.4094 46.0859 58.4549 46.047C58.5004 46.0082 58.5469 45.9704 58.5943 45.9337C58.6419 45.897 58.6904 45.8614 58.7398 45.8269C58.7892 45.7923 58.8395 45.7589 58.8909 45.7268C58.942 45.6946 58.9941 45.6636 59.047 45.6338C59.0999 45.604 59.1536 45.5754 59.2079 45.5481C59.2624 45.5207 59.3175 45.4947 59.3733 45.4699C59.4292 45.4451 59.4856 45.4215 59.5428 45.3994C59.5999 45.3772 59.6576 45.3563 59.7158 45.3367C59.774 45.3171 59.8327 45.2989 59.8919 45.2821C59.9511 45.2652 60.0107 45.2497 60.0708 45.2355C60.1308 45.2214 60.1912 45.2087 60.2519 45.1973C60.3126 45.1859 60.3736 45.1759 60.4349 45.1673C60.4962 45.1588 60.5576 45.1517 60.6193 45.1459C61.7654 45.0445 62.5771 45.4244 63.4274 46.0814C64.059 45.4904 64.7247 45.2033 65.6089 45.0649Z" fill="#FEFEFE"/>
<path d="M45.6131 46.1143L45.6808 46.1328C45.8245 46.3611 45.6859 52.353 45.6865 53.1835L53.1056 53.1718L53.102 62.9068L45.9096 62.9067L45.9077 69.586L35.8203 69.5474C35.6629 69.392 35.7122 63.7092 35.7064 62.9297C33.2193 62.842 30.6932 62.9096 28.2042 62.9269L28.232 53.1877L35.75 53.1899C35.7819 50.842 35.7515 48.4897 35.7498 46.1413C39.0376 46.1517 42.3254 46.1427 45.6131 46.1143Z" fill="black"/>
<path d="M47.4139 55.4654C48.4788 55.3935 49.6028 55.4144 50.6707 55.447L50.6787 60.6731L43.5789 60.6753L43.546 67.3949L39.9749 67.3889C39.3964 67.3876 38.7381 67.441 38.1724 67.3488C38.7446 67.2933 39.341 67.3227 39.9167 67.3223C39.8391 65.9673 39.8269 62.5608 40.2138 61.3294C40.4423 60.6025 40.8097 59.9305 41.4354 59.4274C42.388 58.6613 43.718 58.3942 44.8512 57.9362C46.7234 57.1795 48.6241 56.4161 50.4101 55.4978C49.4196 55.4936 48.3989 55.5487 47.4139 55.4654Z" fill="#8D8D8D" fill-opacity="0.54"/>
<path d="M38.1494 48.3977C39.8659 48.3695 41.587 48.3911 43.3039 48.3889L43.2553 55.4226C44.6408 55.4699 46.028 55.4419 47.414 55.4654C48.3991 55.5487 49.4197 55.4936 50.4103 55.4978C48.6242 56.4161 46.7236 57.1795 44.8513 57.9362C43.7182 58.3943 42.3882 58.6613 41.4356 59.4274C40.8099 59.9305 40.4425 60.6025 40.214 61.3294C39.827 62.5608 39.8392 65.9673 39.9168 67.3224C39.3412 67.3227 38.7448 67.2933 38.1726 67.3489C38.0002 66.9796 38.1095 61.4985 38.1088 60.6359L30.6214 60.642L30.6329 55.3655L38.1291 55.3628L38.1494 48.3977Z" fill="#FEFEFE"/>
</svg>
