<svg width="120" height="25" viewBox="0 0 120 25" fill="none" xmlns="http://www.w3.org/2000/svg">
<path d="M20.096 1.08V18H15.392V8.664L12.2 18H8.264L5.048 8.592V18H0.344V1.08H6.032L10.28 12.072L14.432 1.08H20.096ZM35.6377 11.112C35.6377 11.48 35.6137 11.848 35.5657 12.216H26.6617C26.7097 12.952 26.9097 13.504 27.2617 13.872C27.6297 14.224 28.0937 14.4 28.6537 14.4C29.4377 14.4 29.9977 14.048 30.3337 13.344H35.3497C35.1417 14.272 34.7337 15.104 34.1257 15.84C33.5337 16.56 32.7817 17.128 31.8697 17.544C30.9577 17.96 29.9497 18.168 28.8457 18.168C27.5177 18.168 26.3337 17.888 25.2937 17.328C24.2697 16.768 23.4617 15.968 22.8697 14.928C22.2937 13.888 22.0057 12.664 22.0057 11.256C22.0057 9.848 22.2937 8.632 22.8697 7.608C23.4457 6.568 24.2457 5.768 25.2697 5.208C26.3097 4.648 27.5017 4.368 28.8457 4.368C30.1737 4.368 31.3497 4.64 32.3737 5.184C33.3977 5.728 34.1977 6.512 34.7737 7.536C35.3497 8.544 35.6377 9.736 35.6377 11.112ZM30.8377 9.936C30.8377 9.36 30.6457 8.912 30.2617 8.592C29.8777 8.256 29.3977 8.088 28.8217 8.088C28.2457 8.088 27.7737 8.248 27.4057 8.568C27.0377 8.872 26.7977 9.328 26.6857 9.936H30.8377ZM36.7948 11.256C36.7948 9.864 37.0428 8.648 37.5388 7.608C38.0508 6.568 38.7468 5.768 39.6268 5.208C40.5068 4.648 41.4828 4.368 42.5547 4.368C43.4188 4.368 44.1868 4.552 44.8588 4.92C45.5468 5.272 46.0828 5.76 46.4668 6.384V0.24H51.1948V18H46.4668V16.128C46.0988 16.752 45.5788 17.248 44.9068 17.616C44.2348 17.984 43.4428 18.168 42.5308 18.168C41.4588 18.168 40.4828 17.888 39.6028 17.328C38.7388 16.768 38.0508 15.968 37.5388 14.928C37.0428 13.872 36.7948 12.648 36.7948 11.256ZM46.4908 11.256C46.4908 10.392 46.2508 9.712 45.7708 9.216C45.3068 8.72 44.7308 8.472 44.0428 8.472C43.3388 8.472 42.7548 8.72 42.2908 9.216C41.8268 9.696 41.5948 10.376 41.5948 11.256C41.5948 12.12 41.8268 12.808 42.2908 13.32C42.7548 13.816 43.3388 14.064 44.0428 14.064C44.7308 14.064 45.3068 13.816 45.7708 13.32C46.2508 12.824 46.4908 12.136 46.4908 11.256Z" fill="#7A40F2"/>
<path d="M60.2593 18.168C58.2913 18.168 56.6753 17.704 55.4113 16.776C54.1473 15.832 53.4673 14.488 53.3713 12.744H58.3873C58.4353 13.336 58.6113 13.768 58.9153 14.04C59.2193 14.312 59.6113 14.448 60.0913 14.448C60.5233 14.448 60.8753 14.344 61.1473 14.136C61.4353 13.912 61.5793 13.608 61.5793 13.224C61.5793 12.728 61.3473 12.344 60.8833 12.072C60.4193 11.8 59.6673 11.496 58.6273 11.16C57.5233 10.792 56.6273 10.44 55.9393 10.104C55.2673 9.752 54.6753 9.248 54.1633 8.592C53.6673 7.92 53.4193 7.048 53.4193 5.976C53.4193 4.888 53.6913 3.96 54.2353 3.192C54.7793 2.408 55.5313 1.816 56.4913 1.416C57.4513 1.016 58.5393 0.816 59.7553 0.816C61.7233 0.816 63.2913 1.28 64.4593 2.208C65.6433 3.12 66.2753 4.408 66.3553 6.072H61.2433C61.2273 5.56 61.0673 5.176 60.7633 4.92C60.4753 4.664 60.0993 4.536 59.6353 4.536C59.2833 4.536 58.9953 4.64 58.7713 4.848C58.5473 5.056 58.4353 5.352 58.4353 5.736C58.4353 6.056 58.5553 6.336 58.7953 6.576C59.0513 6.8 59.3633 7 59.7313 7.176C60.0993 7.336 60.6433 7.544 61.3633 7.8C62.4353 8.168 63.3153 8.536 64.0033 8.904C64.7073 9.256 65.3073 9.76 65.8033 10.416C66.3153 11.056 66.5713 11.872 66.5713 12.864C66.5713 13.872 66.3153 14.776 65.8033 15.576C65.3073 16.376 64.5793 17.008 63.6193 17.472C62.6753 17.936 61.5553 18.168 60.2593 18.168ZM76.7021 13.992V18H74.6621C71.2221 18 69.5021 16.296 69.5021 12.888V8.448H67.8461V4.536H69.5021V1.272H74.2301V4.536H76.6781V8.448H74.2301V12.96C74.2301 13.328 74.3101 13.592 74.4701 13.752C74.6461 13.912 74.9341 13.992 75.3341 13.992H76.7021ZM85.1236 18.168C83.7796 18.168 82.5716 17.888 81.4996 17.328C80.4436 16.768 79.6116 15.968 79.0036 14.928C78.3956 13.888 78.0916 12.664 78.0916 11.256C78.0916 9.864 78.3956 8.648 79.0036 7.608C79.6276 6.568 80.4676 5.768 81.5236 5.208C82.5956 4.648 83.8036 4.368 85.1476 4.368C86.4916 4.368 87.6916 4.648 88.7476 5.208C89.8196 5.768 90.6596 6.568 91.2676 7.608C91.8916 8.648 92.2036 9.864 92.2036 11.256C92.2036 12.648 91.8916 13.872 91.2676 14.928C90.6596 15.968 89.8196 16.768 88.7476 17.328C87.6756 17.888 86.4676 18.168 85.1236 18.168ZM85.1236 14.088C85.7796 14.088 86.3236 13.848 86.7556 13.368C87.2036 12.872 87.4276 12.168 87.4276 11.256C87.4276 10.344 87.2036 9.648 86.7556 9.168C86.3236 8.688 85.7876 8.448 85.1476 8.448C84.5076 8.448 83.9716 8.688 83.5396 9.168C83.1076 9.648 82.8916 10.344 82.8916 11.256C82.8916 12.184 83.0996 12.888 83.5156 13.368C83.9316 13.848 84.4676 14.088 85.1236 14.088ZM98.8214 6.912C99.3494 6.144 99.9894 5.536 100.741 5.088C101.493 4.64 102.301 4.416 103.165 4.416V9.432H101.845C100.821 9.432 100.061 9.632 99.5654 10.032C99.0694 10.432 98.8214 11.128 98.8214 12.12V18H94.1174V4.536H98.8214V6.912ZM119.348 4.536L110.804 24.408H105.692L108.908 17.424L103.388 4.536H108.62L111.452 12.168L114.188 4.536H119.348Z" fill="#F16E00"/>
</svg>
