<svg width="199" height="41" viewBox="0 0 199 41" fill="none" xmlns="http://www.w3.org/2000/svg">
<path d="M33.16 1.8V30H25.32V14.44L20 30H13.44L8.08 14.32V30H0.24V1.8H9.72L16.8 20.12L23.72 1.8H33.16ZM59.0628 18.52C59.0628 19.1333 59.0228 19.7467 58.9428 20.36H44.1028C44.1828 21.5867 44.5161 22.5067 45.1028 23.12C45.7161 23.7067 46.4895 24 47.4228 24C48.7295 24 49.6628 23.4133 50.2228 22.24H58.5828C58.2361 23.7867 57.5561 25.1733 56.5428 26.4C55.5561 27.6 54.3028 28.5467 52.7828 29.24C51.2628 29.9333 49.5828 30.28 47.7428 30.28C45.5295 30.28 43.5561 29.8133 41.8228 28.88C40.1161 27.9467 38.7695 26.6133 37.7828 24.88C36.8228 23.1467 36.3428 21.1067 36.3428 18.76C36.3428 16.4133 36.8228 14.3867 37.7828 12.68C38.7428 10.9467 40.0761 9.61333 41.7828 8.68C43.5161 7.74667 45.5028 7.28 47.7428 7.28C49.9561 7.28 51.9161 7.73333 53.6228 8.64C55.3295 9.54667 56.6628 10.8533 57.6228 12.56C58.5828 14.24 59.0628 16.2267 59.0628 18.52ZM51.0628 16.56C51.0628 15.6 50.7428 14.8533 50.1028 14.32C49.4628 13.76 48.6628 13.48 47.7028 13.48C46.7428 13.48 45.9561 13.7467 45.3428 14.28C44.7295 14.7867 44.3295 15.5467 44.1428 16.56H51.0628ZM60.9913 18.76C60.9913 16.44 61.4046 14.4133 62.2313 12.68C63.0846 10.9467 64.2446 9.61333 65.7113 8.68C67.1779 7.74667 68.8046 7.28 70.5912 7.28C72.0313 7.28 73.3113 7.58667 74.4313 8.2C75.5779 8.78667 76.4713 9.6 77.1113 10.64V0.4H84.9913V30H77.1113V26.88C76.4979 27.92 75.6313 28.7467 74.5113 29.36C73.3913 29.9733 72.0713 30.28 70.5513 30.28C68.7646 30.28 67.1379 29.8133 65.6713 28.88C64.2313 27.9467 63.0846 26.6133 62.2313 24.88C61.4046 23.12 60.9913 21.08 60.9913 18.76ZM77.1513 18.76C77.1513 17.32 76.7513 16.1867 75.9513 15.36C75.1779 14.5333 74.2179 14.12 73.0713 14.12C71.8979 14.12 70.9246 14.5333 70.1513 15.36C69.3779 16.16 68.9913 17.2933 68.9913 18.76C68.9913 20.2 69.3779 21.3467 70.1513 22.2C70.9246 23.0267 71.8979 23.44 73.0713 23.44C74.2179 23.44 75.1779 23.0267 75.9513 22.2C76.7513 21.3733 77.1513 20.2267 77.1513 18.76Z" fill="black"/>
<path d="M100.099 30.28C96.8188 30.28 94.1254 29.5067 92.0188 27.96C89.9121 26.3867 88.7788 24.1467 88.6188 21.24H96.9788C97.0588 22.2267 97.3521 22.9467 97.8588 23.4C98.3654 23.8533 99.0188 24.08 99.8188 24.08C100.539 24.08 101.125 23.9067 101.579 23.56C102.059 23.1867 102.299 22.68 102.299 22.04C102.299 21.2133 101.912 20.5733 101.139 20.12C100.365 19.6667 99.1121 19.16 97.3788 18.6C95.5388 17.9867 94.0454 17.4 92.8988 16.84C91.7788 16.2533 90.7921 15.4133 89.9388 14.32C89.1121 13.2 88.6988 11.7467 88.6988 9.96C88.6988 8.14667 89.1521 6.6 90.0588 5.32C90.9654 4.01333 92.2188 3.02667 93.8188 2.36C95.4188 1.69333 97.2321 1.36 99.2588 1.36C102.539 1.36 105.152 2.13333 107.099 3.68C109.072 5.2 110.125 7.34667 110.259 10.12H101.739C101.712 9.26667 101.445 8.62667 100.939 8.2C100.459 7.77333 99.8321 7.56 99.0588 7.56C98.4721 7.56 97.9921 7.73333 97.6188 8.08C97.2454 8.42667 97.0588 8.92 97.0588 9.56C97.0588 10.0933 97.2588 10.56 97.6588 10.96C98.0854 11.3333 98.6054 11.6667 99.2188 11.96C99.8321 12.2267 100.739 12.5733 101.939 13C103.725 13.6133 105.192 14.2267 106.339 14.84C107.512 15.4267 108.512 16.2667 109.339 17.36C110.192 18.4267 110.619 19.7867 110.619 21.44C110.619 23.12 110.192 24.6267 109.339 25.96C108.512 27.2933 107.299 28.3467 105.699 29.12C104.125 29.8933 102.259 30.28 100.099 30.28ZM127.503 23.32V30H124.103C118.37 30 115.503 27.16 115.503 21.48V14.08H112.743V7.56H115.503V2.12H123.383V7.56H127.463V14.08H123.383V21.6C123.383 22.2133 123.517 22.6533 123.783 22.92C124.077 23.1867 124.557 23.32 125.223 23.32H127.503ZM141.539 30.28C139.299 30.28 137.286 29.8133 135.499 28.88C133.739 27.9467 132.353 26.6133 131.339 24.88C130.326 23.1467 129.819 21.1067 129.819 18.76C129.819 16.44 130.326 14.4133 131.339 12.68C132.379 10.9467 133.779 9.61333 135.539 8.68C137.326 7.74667 139.339 7.28 141.579 7.28C143.819 7.28 145.819 7.74667 147.579 8.68C149.366 9.61333 150.766 10.9467 151.779 12.68C152.819 14.4133 153.339 16.44 153.339 18.76C153.339 21.08 152.819 23.12 151.779 24.88C150.766 26.6133 149.366 27.9467 147.579 28.88C145.793 29.8133 143.779 30.28 141.539 30.28ZM141.539 23.48C142.633 23.48 143.539 23.08 144.259 22.28C145.006 21.4533 145.379 20.28 145.379 18.76C145.379 17.24 145.006 16.08 144.259 15.28C143.539 14.48 142.646 14.08 141.579 14.08C140.513 14.08 139.619 14.48 138.899 15.28C138.179 16.08 137.819 17.24 137.819 18.76C137.819 20.3067 138.166 21.48 138.859 22.28C139.553 23.08 140.446 23.48 141.539 23.48ZM164.369 11.52C165.249 10.24 166.316 9.22666 167.569 8.48C168.822 7.73333 170.169 7.36 171.609 7.36V15.72H169.409C167.702 15.72 166.436 16.0533 165.609 16.72C164.782 17.3867 164.369 18.5467 164.369 20.2V30H156.529V7.56H164.369V11.52ZM198.58 7.56L184.34 40.68H175.82L181.18 29.04L171.98 7.56H180.7L185.42 20.28L189.98 7.56H198.58Z" fill="#F16E00"/>
</svg>
