<svg width="17" height="17" viewBox="0 0 17 17" fill="none" xmlns="http://www.w3.org/2000/svg">
<path d="M11.6711 8.44534C13.1239 8.44534 14.308 6.51394 14.308 4.16345C14.308 1.84032 13.1299 0 11.6711 0C10.2244 0 9.03407 1.86764 9.03407 4.18166C9.04018 6.52305 10.2244 8.44534 11.6711 8.44534ZM4.63912 8.64578C5.89657 8.64578 6.92817 6.96036 6.92817 4.89228C6.92817 2.86981 5.90878 1.23904 4.63912 1.23904C3.38166 1.23904 2.34397 2.89713 2.35007 4.91054C2.35617 6.96947 3.38166 8.64578 4.63912 8.64578ZM11.6711 7.06969C10.7799 7.06969 10.0168 5.79422 10.0168 4.18166C10.0168 2.59647 10.7676 1.37569 11.6711 1.37569C12.5806 1.37569 13.3253 2.57826 13.3253 4.16345C13.3253 5.77601 12.5744 7.06969 11.6711 7.06969ZM4.63912 7.28831C3.89443 7.28831 3.2596 6.22239 3.2596 4.91054C3.2596 3.62596 3.88833 2.59647 4.63912 2.59647C5.40825 2.59647 6.02474 3.60775 6.02474 4.89228C6.02474 6.22239 5.38991 7.28831 4.63912 7.28831ZM1.24522 17H6.03697C5.74397 16.754 5.51811 16.2074 5.56085 15.6517H1.09264C0.970548 15.6517 0.9095 15.5788 0.9095 15.4057C0.9095 13.1463 2.63697 11.0327 4.63302 11.0327C5.40214 11.0327 6.09189 11.306 6.68401 11.8253C6.87932 11.4609 7.09908 11.142 7.37375 10.8596C6.58632 10.0852 5.64021 9.68438 4.63302 9.68438C2.0754 9.68438 0 12.4539 0 15.4877C0 16.4989 0.415073 17 1.24522 17ZM7.83767 17H15.5045C16.5177 17 17 16.5445 17 15.5423C17 13.1554 14.9794 9.70259 11.6711 9.70259C8.35653 9.70259 6.33605 13.1554 6.33605 15.5423C6.33605 16.5445 6.81827 17 7.83767 17ZM7.54466 15.6244C7.38595 15.6244 7.31883 15.5606 7.31883 15.3692C7.31883 13.8751 8.86926 11.0782 11.6711 11.0782C14.4668 11.0782 16.0172 13.8751 16.0172 15.3692C16.0172 15.5606 15.9561 15.6244 15.7974 15.6244H7.54466Z" fill="#444444"/>
</svg>
