<svg width="27" height="25" viewBox="0 0 27 25" fill="none" xmlns="http://www.w3.org/2000/svg">
<path fill-rule="evenodd" clip-rule="evenodd" d="M19.2175 5.83431C19.2175 9.01706 16.6577 11.5972 13.5 11.5972C10.3423 11.5972 7.78247 9.01706 7.78247 5.83431C7.78247 2.65157 10.3423 0.0714417 13.5 0.0714417C16.6577 0.0714417 19.2175 2.65157 19.2175 5.83431ZM17.3117 5.83431C17.3117 7.95614 15.6051 9.67622 13.5 9.67622C11.3948 9.67622 9.6883 7.95614 9.6883 5.83431C9.6883 3.71248 11.3948 1.9924 13.5 1.9924C15.6051 1.9924 17.3117 3.71248 17.3117 5.83431Z" fill="black"/>
<path d="M13.5 14.4786C7.33042 14.4786 2.07379 18.1557 0.0714111 23.3074C0.559205 23.7956 1.07306 24.2574 1.61069 24.6905C3.10176 19.9607 7.77934 16.3996 13.5 16.3996C19.2206 16.3996 23.8982 19.9607 25.3893 24.6905C25.9269 24.2574 26.4408 23.7956 26.9286 23.3074C24.9262 18.1557 19.6695 14.4786 13.5 14.4786Z" fill="black"/>
</svg>
