<svg width="23" height="24" viewBox="0 0 23 24" fill="none" xmlns="http://www.w3.org/2000/svg">
<path fill-rule="evenodd" clip-rule="evenodd" d="M16.3964 5.61796C16.3964 8.72068 14.2042 11.2359 11.5 11.2359C8.7958 11.2359 6.60362 8.72068 6.60362 5.61796C6.60362 2.51525 8.7958 0 11.5 0C14.2042 0 16.3964 2.51525 16.3964 5.61796ZM14.7642 5.61796C14.7642 7.68644 13.3028 9.36327 11.5 9.36327C9.6972 9.36327 8.23574 7.68644 8.23574 5.61796C8.23574 3.54949 9.6972 1.87265 11.5 1.87265C13.3028 1.87265 14.7642 3.54949 14.7642 5.61796Z" fill="#7A40F2"/>
<path d="M11.5 14.0449C6.21649 14.0449 1.71481 17.6295 0 22.6517C0.417739 23.1276 0.857795 23.5778 1.31821 24C2.59514 19.3892 6.60094 15.9176 11.5 15.9176C16.3991 15.9176 20.4049 19.3892 21.6818 24C22.1422 23.5778 22.5823 23.1276 23 22.6517C21.2852 17.6296 16.7835 14.0449 11.5 14.0449Z" fill="#7A40F2"/>
</svg>
