<svg width="16" height="19" viewBox="0 0 16 19" fill="none" xmlns="http://www.w3.org/2000/svg">
<path d="M4.68421 2.7H2.47368C1.65979 2.7 1 3.46112 1 4.4V6.95M4.68421 2.7H10.5789H4.68421ZM4.68421 2.7V1V2.7ZM4.68421 2.7V4.4V2.7ZM10.5789 2.7H12.7895C13.6034 2.7 14.2632 3.46112 14.2632 4.4V6.95H1M10.5789 2.7V1V2.7ZM10.5789 2.7V4.4V2.7ZM1 6.95V16.3C1 17.2389 1.65979 18 2.47368 18H6.15789M11.3158 12.2625V13.75L12.2368 14.8125M15 13.75C15 16.0972 13.3505 18 11.3158 18C9.28107 18 7.63158 16.0972 7.63158 13.75C7.63158 11.4028 9.28107 9.5 11.3158 9.5C13.3505 9.5 15 11.4028 15 13.75Z" fill="white"/>
<path d="M4.68421 2.7H2.47368C1.65979 2.7 1 3.46112 1 4.4V6.95M4.68421 2.7H10.5789M4.68421 2.7V1M4.68421 2.7V4.4M1 6.95H14.2632V4.4C14.2632 3.46112 13.6034 2.7 12.7895 2.7H10.5789M1 6.95V16.3C1 17.2389 1.65979 18 2.47368 18H6.15789M10.5789 2.7V1M10.5789 2.7V4.4M11.3158 12.2625V13.75L12.2368 14.8125M15 13.75C15 16.0972 13.3505 18 11.3158 18C9.28107 18 7.63158 16.0972 7.63158 13.75C7.63158 11.4028 9.28107 9.5 11.3158 9.5C13.3505 9.5 15 11.4028 15 13.75Z" stroke="#444444" stroke-linecap="round" stroke-linejoin="round"/>
</svg>
