<svg width="27" height="24" viewBox="0 0 27 24" fill="none" xmlns="http://www.w3.org/2000/svg">
<g clip-path="url(#clip0_448_2282)">
<mask id="mask0_448_2282" style="mask-type:luminance" maskUnits="userSpaceOnUse" x="0" y="0" width="27" height="24">
<path d="M26.7105 0H0.973633V24H26.7105V0Z" fill="white"/>
</mask>
<g mask="url(#mask0_448_2282)">
<path d="M25.1019 17.5005H22.9572V15.5005C22.9572 15.1027 22.7877 14.7211 22.486 14.4398C22.1844 14.1585 21.7752 14.0005 21.3487 14.0005C20.922 14.0005 20.5129 14.1585 20.2112 14.4398C19.9095 14.7211 19.7401 15.1027 19.7401 15.5005V17.5005H17.5954C17.1688 17.5005 16.7596 17.6585 16.4579 17.9398C16.1563 18.2211 15.9868 18.6027 15.9868 19.0005C15.9868 19.3983 16.1563 19.7798 16.4579 20.0611C16.7596 20.3425 17.1688 20.5005 17.5954 20.5005H19.7401V22.5005C19.7401 22.8983 19.9095 23.2798 20.2112 23.5611C20.5129 23.8425 20.922 24.0005 21.3487 24.0005C21.7752 24.0005 22.1844 23.8425 22.486 23.5611C22.7877 23.2798 22.9572 22.8983 22.9572 22.5005V20.5005H25.1019C25.5285 20.5005 25.9376 20.3425 26.2393 20.0611C26.541 19.7798 26.7104 19.3983 26.7104 19.0005C26.7104 18.6027 26.541 18.2211 26.2393 17.9398C25.9376 17.6585 25.5285 17.5005 25.1019 17.5005Z" fill="#7A40F2"/>
<path d="M13.381 20.9898C11.5136 20.9065 9.71239 20.3191 8.19615 19.2992C6.67993 18.2792 5.51401 16.8706 4.84007 15.2444C4.16613 13.6183 4.01318 11.8446 4.39981 10.1389C4.78644 8.43316 5.696 6.86889 7.01798 5.63613C8.33995 4.40337 10.0174 3.55519 11.8466 3.19465C13.6757 2.83411 15.5778 2.97674 17.3216 3.6052C19.0655 4.23366 20.5761 5.3209 21.6698 6.7348C22.7635 8.14871 23.3934 9.82841 23.4828 11.5698C23.5027 11.9676 23.6912 12.3418 24.0069 12.61C24.3227 12.8781 24.7398 13.0184 25.1664 12.9998C25.593 12.9812 25.9942 12.8054 26.2819 12.511C26.5694 12.2165 26.7198 11.8276 26.6999 11.4298C26.5815 9.10773 25.7424 6.8677 24.2846 4.98196C22.8267 3.09621 20.8129 1.64594 18.4878 0.807391C16.1627 -0.0311561 13.6264 -0.221872 11.1873 0.258422C8.74815 0.738715 6.51111 1.86934 4.74806 3.51288C2.98501 5.15643 1.77186 7.24213 1.25603 9.51652C0.740205 11.7909 0.943915 14.156 1.84241 16.3245C2.7409 18.493 4.29548 20.3714 6.31723 21.7314C8.33898 23.0915 10.7408 23.8747 13.2309 23.9858H13.3071C13.7336 23.995 14.1467 23.8457 14.4553 23.5709C14.764 23.296 14.9428 22.9181 14.9526 22.5203C14.9625 22.1225 14.8024 21.7373 14.5077 21.4495C14.2129 21.1618 13.8076 20.995 13.381 20.9858V20.9898Z" fill="#7A40F2"/>
<path d="M13.8422 6C13.4156 6 13.0065 6.15803 12.7049 6.43934C12.4031 6.72064 12.2337 7.10217 12.2337 7.5V11.055L9.65999 12.555C9.4809 12.6596 9.32564 12.796 9.20311 12.9565C9.08057 13.1171 8.99316 13.2985 8.94585 13.4906C8.89855 13.6826 8.89229 13.8815 8.92743 14.0758C8.96256 14.2701 9.03841 14.456 9.15062 14.623C9.26276 14.79 9.40907 14.9348 9.58122 15.049C9.75338 15.1633 9.94798 15.2448 10.1539 15.2889C10.3599 15.333 10.5731 15.3389 10.7815 15.3061C10.9898 15.2734 11.1892 15.2026 11.3683 15.098L14.4449 13.298C14.7536 13.1176 15.0079 12.8669 15.1839 12.5695C15.3599 12.272 15.4517 11.9377 15.4508 11.598V7.5C15.4508 7.10217 15.2813 6.72064 14.9797 6.43934C14.678 6.15803 14.2688 6 13.8422 6Z" fill="#7A40F2"/>
</g>
</g>
<defs>
<clipPath id="clip0_448_2282">
<rect width="25.7368" height="24" fill="white" transform="translate(0.973633)"/>
</clipPath>
</defs>
</svg>
